<svg width="100" height="41" viewBox="0 0 100 41" fill="none" xmlns="http://www.w3.org/2000/svg">
<path d="M53.6602 12.3148C53.6023 12.4139 49.1287 28.4026 49.1287 28.5018C49.1287 28.5628 49.5551 28.5857 50.603 28.5857H52.0846L52.2653 27.9526C52.3592 27.6093 52.5472 26.9304 52.6772 26.4498C52.8073 25.9692 52.9447 25.5268 52.9808 25.4734C53.0314 25.4047 53.6385 25.3819 55.5682 25.3819H58.0905L58.1916 25.5497C58.2495 25.6488 58.4446 26.3049 58.6325 27.0219C58.8132 27.7313 58.9794 28.3797 59.0011 28.4484C59.0372 28.5781 59.1818 28.5857 60.7067 28.5857H62.3762L62.3329 28.334C62.3112 28.2043 61.2994 24.5428 60.0852 20.2176C58.871 15.8848 57.8736 12.3224 57.8736 12.2995C57.8736 12.2385 53.6963 12.2537 53.6602 12.3148ZM56.58 19.2259C57.0859 21.1177 57.4834 22.6967 57.4617 22.7272C57.4472 22.7654 56.6161 22.7883 55.626 22.7883C54.1372 22.7883 53.8119 22.773 53.783 22.6815C53.7613 22.6205 54.1082 21.2245 54.5491 19.5692C55.6187 15.5873 55.5609 15.7703 55.6187 15.7703C55.6477 15.7703 56.0813 17.3265 56.58 19.2259Z" fill="black"/>
<path d="M15.6423 0.564863C11.1118 1.78953 8.56461 3.74505 9.51737 5.22651C11.7534 8.70299 28.6309 8.60423 32.0725 5.10799C35.0864 2.04632 22.7199 -1.37091 15.6423 0.564863Z" fill="black"/>
<path d="M5.90058 6.70796C3.7034 9.51285 4.17006 10.8758 7.9811 12.7721C20.892 19.1522 42.6888 14.7078 36.3695 6.9845C34.6584 4.91046 34.3667 4.75244 34.2112 5.91785C33.6084 10.0857 16.6726 13.5029 10.5088 10.698C7.94221 9.5326 7.30056 8.60423 7.53389 6.45118C7.76722 4.25862 7.84499 4.23887 5.90058 6.70796Z" fill="black"/>
<path d="M38.9362 11.9029C38.9362 16.3868 22.642 21.2657 12.9589 19.6658C7.22285 18.7176 2.80904 15.814 2.73127 12.9301L2.71182 11.5869L2.18683 12.7918C0.572971 16.5251 1.35073 18.1645 5.93954 20.4954C12.6283 23.9323 27.4447 24.7422 34.9307 22.0558C39.7334 20.3373 41.3278 17.9868 40.2584 14.1152C39.6362 11.8832 38.9362 10.698 38.9362 11.9029Z" fill="black"/>
<path d="M76.6967 12.7918C75.1412 14.135 74.7329 16.1695 75.6857 17.9473L76.3662 19.2509L75.1607 20.2781C72.8468 22.2731 72.8274 25.7891 75.1412 27.7644C76.9495 29.3051 80.3911 29.2261 82.2189 27.6064L83.5216 26.4409L84.5327 27.6064C85.3299 28.5347 85.8549 28.7718 87.1188 28.7718C89.1215 28.7718 89.1021 28.6137 86.9438 26.1249L85.1938 24.0706L86.3605 22.1348C87.8577 19.6855 87.8577 19.6855 86.0299 19.6855C84.7272 19.6855 84.4744 19.8435 84.0466 20.8707C83.4633 22.3126 83.3855 22.3126 82.0633 21.0287L80.9939 19.9818L82.53 18.5201C86.4771 14.6881 80.9161 9.1968 76.6967 12.7918ZM80.7217 14.7671C81.5772 15.6362 81.48 16.2485 80.3134 17.3547L79.3217 18.3028L78.5634 17.3744C77.4551 15.972 78.0189 14.1547 79.5745 14.1547C79.8661 14.1547 80.3717 14.4313 80.7217 14.7671ZM80.0995 22.9842L81.7717 24.7225L80.7217 25.5521C78.0578 27.6854 74.9468 24.92 76.8717 22.1348C77.7273 20.9102 78.2134 21.0287 80.0995 22.9842Z" fill="black"/>
<path d="M86.3799 13.5622V14.9448H88.9271H91.4742L91.3965 21.7595L91.3187 28.6831L92.7381 28.6927L94.418 28.6628L94.1575 21.8781V14.9448H96.6853H99.213V13.5622V12.1795H92.7964H86.3799V13.5622Z" fill="black"/>
<path d="M40.2973 20.6337C37.8279 24.4854 26.3364 28.3767 17.4116 28.3767C9.4006 28.3767 3.93681 26.0854 1.56463 21.7003L0.786865 20.2781L0.942418 22.3719C1.35074 27.8632 10.2756 31.9125 22.0198 31.9125C35.0085 31.9125 41.9889 27.8039 41.2112 20.6337L41.075 19.409L40.2973 20.6337Z" fill="black"/>
<path d="M38.1974 29.4829C31.1781 36.4161 11.4423 37.0284 4.3841 30.5495C2.14803 28.515 2.36192 29.5619 4.61743 31.873C12.9395 40.3271 34.3086 39.0432 38.9946 29.8187C39.9668 27.9027 39.8501 27.8632 38.1974 29.4829Z" fill="black"/>
<path d="M32.5778 36.5346C26.9002 39.6555 16.5754 39.9123 10.2755 37.0679C8.19494 36.1396 8.42827 36.6926 10.6838 38.0358C17.3726 42.0259 26.4141 41.6901 32.5584 37.2655C34.5223 35.8433 34.5223 35.4482 32.5778 36.5346Z" fill="black"/>
<path d="M62.229 13.4325V14.8152H64.7762H67.3234L67.2456 21.6299L67.1678 28.5534L68.5872 28.5632L70.2672 28.5332L70.0067 21.7485V14.8152H72.5344H75.0621V13.4326V12.0499H68.6456H62.229L62.229 13.4325Z" fill="black"/>
</svg>
