<svg xmlns="http://www.w3.org/2000/svg" viewBox="0 0 145.64 166.91"><defs><style>.cls-1{fill:#565f73;}</style></defs><title>Artboard 3</title><g id="Layer_2" data-name="Layer 2"><path class="cls-1" d="M120.9,156.79H22.79c-6.81,0-12.35-5.11-12.35-11.39V47.88a3,3,0,1,1,6,0V145.4c0,3,2.85,5.39,6.35,5.39H120.9c3.5,0,6.35-2.42,6.35-5.39V21.65c0-3-2.85-5.39-6.35-5.39h-72a3,3,0,1,1,0-6h72c6.81,0,12.35,5.11,12.35,11.39V145.4C133.24,151.68,127.71,156.79,120.9,156.79Z"/><path class="cls-1" d="M39.57,50.88H13.44a3,3,0,0,1-2.1-5.15L46.82,11.11a3,3,0,0,1,5.1,2.15V39.49C51.92,45.77,46.38,50.88,39.57,50.88Zm-18.76-6H39.57c3.5,0,6.35-2.42,6.35-5.39V20.38Z"/><path class="cls-1" d="M71.8,111.51a3,3,0,0,1-3-3V59.92a3,3,0,0,1,5.08-2.17L99.21,82.05a3,3,0,0,1,0,4.33L73.87,110.68A3,3,0,0,1,71.8,111.51ZM74.8,67v34.52l18-17.26Z"/><path class="cls-1" d="M79.35,49.41h-15a4.89,4.89,0,0,1-4.88-4.88V30.74a4.89,4.89,0,0,1,4.88-4.88h15a4.89,4.89,0,0,1,4.88,4.88V44.53A4.89,4.89,0,0,1,79.35,49.41Zm-13.92-6h12.8V31.86H65.43Z"/><path class="cls-1" d="M113.2,49.41h-15a4.89,4.89,0,0,1-4.88-4.88V30.74a4.89,4.89,0,0,1,4.88-4.88h15a4.89,4.89,0,0,1,4.88,4.88V44.53A4.89,4.89,0,0,1,113.2,49.41Zm-13.92-6h12.8V31.86H99.28Z"/><path class="cls-1" d="M45.51,143.43h-15a4.89,4.89,0,0,1-4.88-4.88V124.76a4.89,4.89,0,0,1,4.88-4.88h15a4.89,4.89,0,0,1,4.88,4.88v13.79A4.89,4.89,0,0,1,45.51,143.43Zm-13.92-6h12.8V125.88H31.59Z"/><path class="cls-1" d="M113.2,143.43h-15a4.89,4.89,0,0,1-4.88-4.88V124.76a4.89,4.89,0,0,1,4.88-4.88h15a4.89,4.89,0,0,1,4.88,4.88v13.79A4.89,4.89,0,0,1,113.2,143.43Zm-13.92-6h12.8V125.88H99.28Z"/><path class="cls-1" d="M79.35,143.43h-15a4.89,4.89,0,0,1-4.88-4.88V124.76a4.89,4.89,0,0,1,4.88-4.88h15a4.89,4.89,0,0,1,4.88,4.88v13.79A4.89,4.89,0,0,1,79.35,143.43Zm-13.92-6h12.8V125.88H65.43Z"/></g></svg>