<svg xmlns="http://www.w3.org/2000/svg" viewBox="0 0 447.04 315.84">
  <g>
    <path d="M399.14,300.12H53.68a32.26,32.26,0,0,1-32.23-32.23V54.44A32.26,32.26,0,0,1,53.68,22.21H399.14a32.26,32.26,0,0,1,32.23,32.23V267.89A32.26,32.26,0,0,1,399.14,300.12ZM53.68,36.21A18.25,18.25,0,0,0,35.45,54.44V267.89a18.25,18.25,0,0,0,18.23,18.23H399.14a18.25,18.25,0,0,0,18.23-18.23V54.44a18.25,18.25,0,0,0-18.23-18.23Z"/>
    <path d="M226.41,199.82a7,7,0,0,1-3.87-1.17L27.86,69.59a7,7,0,0,1,7.74-11.67l190.82,126.5L417.23,57.92A7,7,0,0,1,425,69.59L230.28,198.66A7,7,0,0,1,226.41,199.82Z"/>
  </g>
</svg>
