<svg xmlns="http://www.w3.org/2000/svg" viewBox="0 0 162 180">
  <g id="Layer_2" data-name="Layer 2">
    <path class="cls-1" d="M124.2,59.2a3,3,0,0,1-3-3V19.79c0-2.89-2.67-5.25-6-5.25h-69a3,3,0,0,1,0-6h69c6.6,0,12,5,12,11.25V56.2A3,3,0,0,1,124.2,59.2Z"/>
    <path class="cls-1" d="M75,152.67H21.13c-6.6,0-12-5-12-11.25V45.57a3,3,0,0,1,6,0v95.85c0,2.89,2.68,5.25,6,5.25H75a3,3,0,1,1,0,6Z"/>
    <path class="cls-1" d="M37.23,48.57H12.17A3,3,0,0,1,10,43.45l34-34a3,3,0,0,1,5.12,2.12V37.33C49.19,43.53,43.83,48.57,37.23,48.57Zm-17.82-6H37.23c3.29,0,6-2.35,6-5.25V18.79Z"/>
    <path class="cls-1" d="M77.47,72.66H39.06a3,3,0,0,1,0-6H77.47a3,3,0,0,1,0,6Z"/>
    <path class="cls-1" d="M75.78,89.64H39.06a3,3,0,0,1,0-6H75.78a3,3,0,0,1,0,6Z"/>
    <path class="cls-1" d="M75.21,105.5H39.06a3,3,0,0,1,0-6H75.21a3,3,0,0,1,0,6Z"/>
    <path class="cls-1" d="M108.38,170.37a8.62,8.62,0,0,1-6.42-2.87L87.43,151.58c-2.38-2.6-6.17-6.7-8.44-9.13L64.17,126.59c-2.79-3-2.14-5.51-1.73-6.45s1.8-3.13,5.88-3.13l16.19,0a3.22,3.22,0,0,0,3.22-3.21V76.09A9.24,9.24,0,0,1,97,66.86h22.85A9.24,9.24,0,0,1,129,76.09v37.75a3.23,3.23,0,0,0,3.21,3.21l16.16,0c4.11,0,5.5,2.19,5.91,3.13s1.06,3.46-1.73,6.45l-14.82,15.87c-2.31,2.47-6.09,6.57-8.43,9.13L114.8,167.49A8.62,8.62,0,0,1,108.38,170.37ZM69,123l14.34,15.35c2.28,2.44,6.08,6.56,8.48,9.18l14.54,15.91a2.66,2.66,0,0,0,4,0l14.54-15.91c2.35-2.57,6.15-6.69,8.48-9.18L147.73,123l-15.45,0a9.23,9.23,0,0,1-9.24-9.21V76.09a3.23,3.23,0,0,0-3.23-3.23H97a3.24,3.24,0,0,0-3.23,3.23v37.75a9.22,9.22,0,0,1-9.21,9.21Z"/>
  </g>
</svg>
